<svg width="62" height="59" viewBox="0 0 62 59" fill="none" xmlns="http://www.w3.org/2000/svg">
<path d="M54.4158 20.1679L40.4471 6.79346L30.7941 16.0359L44.7628 29.4103L54.4158 20.1679Z" stroke="#00E725" stroke-width="2" stroke-miterlimit="10"/>
<path d="M59.7874 22.1337L57.9123 20.3384C56.9254 19.3935 55.3262 19.3925 54.3405 20.3363L44.9262 29.3501C43.9405 30.2939 43.9415 31.825 44.9284 32.77L46.8035 34.5653C47.7904 35.5102 49.3896 35.5111 50.3753 34.5673L59.7895 25.5536C60.7753 24.6098 60.7743 23.0787 59.7874 22.1337Z" stroke="#00E725" stroke-width="2" stroke-miterlimit="10"/>
<path d="M40.3319 3.50628L38.4568 1.71097C37.4699 0.766026 35.8708 0.765095 34.885 1.70889L25.4708 10.7227C24.4851 11.6665 24.486 13.1976 25.473 14.1425L27.348 15.9378C28.335 16.8828 29.9341 16.8837 30.9198 15.9399L40.3341 6.92613C41.3198 5.98234 41.3188 4.45122 40.3319 3.50628Z" stroke="#00E725" stroke-width="2" stroke-miterlimit="10"/>
<path d="M35.6895 20.8915L2.73248 51.073C2.49266 51.2864 2.30033 51.544 2.16695 51.8304C2.03357 52.1167 1.96188 52.4259 1.95621 52.7396C1.95053 53.0532 2.01101 53.3648 2.13395 53.6557C2.2569 53.9466 2.43983 54.2108 2.67178 54.4326L4.6601 56.3364C4.89236 56.5589 5.16884 56.7347 5.47319 56.8531C5.77753 56.9716 6.10354 57.0305 6.43191 57.0262C6.76027 57.0219 7.08433 56.9545 7.38486 56.8281C7.6854 56.7017 7.9563 56.5188 8.18154 56.2903L39.6914 24.7231" stroke="#00E725" stroke-width="2" stroke-miterlimit="10"/>
</svg>
