<svg width="65" height="64" viewBox="0 0 65 64" fill="none" xmlns="http://www.w3.org/2000/svg">
<path d="M28.1952 28.9448C26.7238 28.9448 25.4901 28.4696 24.4941 27.5193C23.498 26.547 23 25.3646 23 23.9724C23 22.5801 23.498 21.4088 24.4941 20.4586C25.4901 19.4862 26.7238 19 28.1952 19C29.6667 19 30.9004 19.4862 31.8964 20.4586C32.8925 21.4088 33.3905 22.5801 33.3905 23.9724C33.3905 25.3646 32.9038 26.547 31.9304 27.5193C30.957 28.4696 29.7119 28.9448 28.1952 28.9448ZM26.0221 26.0939C26.588 26.6685 27.3124 26.9558 28.1952 26.9558C29.0781 26.9558 29.8025 26.6685 30.3684 26.0939C30.9344 25.5193 31.2173 24.8122 31.2173 23.9724C31.2173 23.1326 30.9344 22.4254 30.3684 21.8508C29.8025 21.2762 29.0781 20.989 28.1952 20.989C27.3124 20.989 26.588 21.2762 26.0221 21.8508C25.4561 22.4254 25.1732 23.1326 25.1732 23.9724C25.1732 24.8122 25.4561 25.5193 26.0221 26.0939ZM24.1885 39.453L40.1138 21.9834L41.5739 22.779L25.6146 40.2486L24.1885 39.453ZM41.5059 41.5746C40.5099 42.5249 39.2762 43 37.8048 43C36.3333 43 35.0996 42.5249 34.1036 41.5746C33.1075 40.6022 32.6095 39.4199 32.6095 38.0276C32.6095 36.6354 33.1075 35.4641 34.1036 34.5138C35.0996 33.5414 36.3333 33.0552 37.8048 33.0552C39.2762 33.0552 40.5099 33.5414 41.5059 34.5138C42.502 35.4641 43 36.6354 43 38.0276C43 39.4199 42.502 40.6022 41.5059 41.5746ZM35.6316 40.1492C36.1975 40.7238 36.9219 41.011 37.8048 41.011C38.6876 41.011 39.412 40.7238 39.9779 40.1492C40.5439 39.5746 40.8268 38.8674 40.8268 38.0276C40.8268 37.1878 40.5439 36.4807 39.9779 35.9061C39.412 35.3315 38.6876 35.0442 37.8048 35.0442C36.9219 35.0442 36.1975 35.3315 35.6316 35.9061C35.0656 36.4807 34.7827 37.1878 34.7827 38.0276C34.7827 38.8674 35.0656 39.5746 35.6316 40.1492Z" fill="#00E725"/>
<path d="M63.2027 31.68C63.2027 34.8976 58.3075 37.2482 57.3986 40.149C56.4897 43.0498 59.0729 48.0512 57.3986 50.5519C55.7244 53.0526 50.3667 52.0023 47.9431 53.8861C45.5194 55.77 44.9134 61.3049 42.0433 62.2218C39.1731 63.1387 35.6652 59.0542 32.5558 59.0542C29.4465 59.0542 25.8428 63.1554 22.9886 62.2218C20.1344 61.2882 19.4806 55.6533 17.0888 53.8861C14.697 52.119 9.40319 53.1193 7.63326 50.5519C5.86332 47.9845 8.51025 43.1499 7.63326 40.149C6.75626 37.1482 1.84509 34.8976 1.84509 31.68C1.84509 28.4624 6.74032 26.1118 7.63326 23.2277C8.52619 20.3435 5.959 15.3088 7.63326 12.8081C9.30752 10.3074 14.6651 11.3744 17.0729 9.47386C19.4806 7.57334 20.1025 2.05515 22.9727 1.13823C25.8428 0.22131 29.3508 4.30581 32.5399 4.30581C35.7289 4.30581 39.2688 0.204638 42.1071 1.13823C44.9453 2.07182 45.615 7.72338 47.9909 9.47386C50.3667 11.2243 55.6925 10.2241 57.4465 12.8081C59.2004 15.3922 56.5854 20.2268 57.4465 23.2277C58.3075 26.2285 63.2027 28.4624 63.2027 31.68Z" stroke="#00E725" stroke-width="2" stroke-miterlimit="10"/>
</svg>
