<svg width="48" height="56" viewBox="0 0 48 56" fill="none" xmlns="http://www.w3.org/2000/svg">
<path d="M5.64085 55C4.68142 54.5595 4.32484 53.8109 4.36866 52.7419C4.4306 51.2647 4.37772 49.7845 4.38679 48.3043C4.4019 45.6965 5.93246 43.7187 8.43152 43.1088C11.7072 42.3094 14.9859 41.5176 18.2706 40.7567C18.7587 40.6427 18.9309 40.4487 18.875 39.9542C18.8575 39.6397 18.8575 39.3245 18.875 39.01C16.876 38.5294 14.9194 38.0581 12.9628 37.5898C10.636 37.0323 8.31065 36.4654 5.98081 35.9278C5.61921 35.8623 5.28145 35.6991 5.00271 35.4553C4.72396 35.2115 4.51441 34.896 4.39586 34.5416C3.34728 31.8075 2.26244 29.0889 1.19875 26.3625C0.612515 24.8592 1.36042 23.744 2.95141 23.744C8.00393 23.744 13.0559 23.744 18.1075 23.744H18.7587C18.9233 23.3712 19.0291 23 19.2331 22.6966C19.6078 22.1436 20.1774 22.0034 20.8211 22.0034C27.8891 22.0127 34.9577 22.0127 42.0268 22.0034C43.0845 22.0034 44.1421 21.9957 45.1997 22.0034C46.2574 22.0111 46.963 22.7073 46.9705 23.8102C46.9826 25.7895 46.9917 27.7688 46.9705 29.7466C46.9418 32.2111 45.4596 34.1503 43.1056 34.8019C40.3089 35.572 37.5152 36.3422 34.7049 37.0831C34.2758 37.1955 34.1776 37.3911 34.1927 37.7885C34.2282 38.4987 34.2282 39.2102 34.1927 39.9203C34.1595 40.4471 34.3045 40.6782 34.8424 40.8168C37.5424 41.513 40.2318 42.2524 42.9183 42.9994C45.6047 43.7465 46.9751 45.6103 46.9811 48.4213C46.9811 49.8615 46.9358 51.3048 46.9962 52.7434C47.0416 53.814 46.682 54.5626 45.7119 54.9908L5.64085 55Z" stroke="#00E725" stroke-width="2" stroke-miterlimit="10"/>
<line x1="19" y1="23" x2="19" y2="40" stroke="#00E725" stroke-width="2"/>
<rect x="33" y="1" width="10" height="14" rx="1" stroke="#00E725" stroke-width="2"/>
<line x1="32" y1="8" x2="8" y2="8" stroke="#00E725" stroke-width="2"/>
</svg>
