<svg width="60" height="63" viewBox="0 0 60 63" fill="none" xmlns="http://www.w3.org/2000/svg">
<path d="M30 44.0001C46.0163 44.0001 59 38.4036 59 31.5001C59 24.5965 46.0163 19.0001 30 19.0001C13.9837 19.0001 1 24.5965 1 31.5001C1 38.4036 13.9837 44.0001 30 44.0001Z" stroke="#00E725" stroke-width="2" stroke-miterlimit="10"/>
<path d="M44.4384 56.3982C50.6114 52.8343 49.1604 38.7646 41.1977 24.9727C33.2349 11.1808 21.7757 2.88939 15.6028 6.45334C9.42981 10.0173 10.8808 24.087 18.8435 37.8789C26.8063 51.6708 38.2655 59.9622 44.4384 56.3982Z" stroke="#00E725" stroke-width="2" stroke-miterlimit="10"/>
<path d="M41.1976 37.8788C49.1604 24.0869 50.6113 10.0172 44.4384 6.45324C38.2654 2.88929 26.8062 11.1807 18.8434 24.9726C10.8807 38.7645 9.42976 52.8342 15.6027 56.3981C21.7756 59.9621 33.2349 51.6707 41.1976 37.8788Z" stroke="#00E725" stroke-width="2" stroke-miterlimit="10"/>
</svg>
