<svg width="227" height="50" viewBox="0 0 227 50" fill="none" xmlns="http://www.w3.org/2000/svg">
<g opacity="0.3">
<path d="M24.9513 49.9026C38.7315 49.9026 49.9026 38.7315 49.9026 24.9513C49.9026 11.1711 38.7315 0 24.9513 0C11.1711 0 0 11.1711 0 24.9513C0 38.7315 11.1711 49.9026 24.9513 49.9026Z" fill="#5900B7"/>
</g>
<g opacity="0.4">
<path d="M24.9513 40.4489C33.5107 40.4489 40.4494 33.5102 40.4494 24.9509C40.4494 16.3916 33.5107 9.45288 24.9513 9.45288C16.392 9.45288 9.45331 16.3916 9.45331 24.9509C9.45331 33.5102 16.392 40.4489 24.9513 40.4489Z" fill="#5900B7"/>
</g>
<path d="M84.7166 13.8636V37.8177H80.2729L68.4768 22.5983V37.8214H63.3315V13.8673H67.7924L79.5873 29.1038V13.8636H84.7166Z" fill="#5900B7"/>
<path d="M109.516 13.8636V18.4919H97.0359V23.7875H106.776V28.4157H97.0359V37.8262H91.8894V13.8722L109.516 13.8636Z" fill="#5900B7"/>
<path d="M115.654 37.8213V13.8672H117.375V36.1176H130.207V37.8213H115.654Z" fill="#5900B7"/>
<path d="M148.992 34.1794C150.484 32.6647 151.231 30.7993 151.231 28.5832V13.8636H152.934V28.5844C152.934 31.2348 152.01 33.4929 150.161 35.3587C148.313 37.2245 146.102 38.1575 143.529 38.1575C140.955 38.1575 138.744 37.2245 136.895 35.3587C135.046 33.4929 134.124 31.2348 134.128 28.5844V13.8636H135.832V28.5844C135.832 30.7997 136.578 32.6651 138.071 34.1806C139.563 35.696 141.385 36.4534 143.535 36.4526C145.679 36.4517 147.498 35.694 148.992 34.1794Z" fill="#5900B7"/>
<path d="M177.567 36.1176V37.8213H161.143V13.8672H177.233V15.588H162.864V24.4767H174.493V26.1974H162.864V36.1213L177.567 36.1176Z" fill="#5900B7"/>
<path d="M202.718 13.8636V37.8177H201.346L185.442 17.1219V37.8214H183.721V13.8673H185.091L201.014 34.568V13.8636H202.718Z" fill="#5900B7"/>
<path d="M227 13.8636V18.4919H220.167V37.8214H215.034V18.4919H208.19V13.8636H227Z" fill="#5900B7"/>
<path d="M24.9513 30.7633C28.1615 30.7633 30.7638 28.161 30.7638 24.9508C30.7638 21.7407 28.1615 19.1383 24.9513 19.1383C21.7411 19.1383 19.1388 21.7407 19.1388 24.9508C19.1388 28.161 21.7411 30.7633 24.9513 30.7633Z" fill="#5900B7"/>
</svg>
