<svg width="227" height="50" viewBox="0 0 227 50" fill="none" xmlns="http://www.w3.org/2000/svg">
<g opacity="0.3">
<path d="M24.9513 49.9026C38.7315 49.9026 49.9026 38.7315 49.9026 24.9513C49.9026 11.1711 38.7315 0 24.9513 0C11.1711 0 0 11.1711 0 24.9513C0 38.7315 11.1711 49.9026 24.9513 49.9026Z" fill="white"/>
</g>
<g opacity="0.4">
<path d="M24.9513 40.4492C33.5106 40.4492 40.4493 33.5105 40.4493 24.9511C40.4493 16.3918 33.5106 9.45312 24.9513 9.45312C16.392 9.45312 9.45329 16.3918 9.45329 24.9511C9.45329 33.5105 16.392 40.4492 24.9513 40.4492Z" fill="white"/>
</g>
<path d="M84.7167 13.8633V37.8173H80.2729L68.4768 22.598V37.821H63.3316V13.867H67.7924L79.5873 29.1034V13.8633H84.7167Z" fill="white"/>
<path d="M109.516 13.8633V18.4915H97.0359V23.7871H106.776V28.4154H97.0359V37.8259H91.8894V13.8718L109.516 13.8633Z" fill="white"/>
<path d="M115.654 37.8212V13.8672H117.375V36.1176H130.207V37.8212H115.654Z" fill="white"/>
<path d="M148.992 34.179C150.484 32.6644 151.231 30.799 151.231 28.5828V13.8633H152.934V28.584C152.934 31.2344 152.01 33.4926 150.161 35.3584C148.313 37.2242 146.102 38.1571 143.529 38.1571C140.955 38.1571 138.744 37.2242 136.895 35.3584C135.046 33.4926 134.124 31.2344 134.128 28.584V13.8633H135.832V28.584C135.832 30.7994 136.578 32.6648 138.071 34.1802C139.563 35.6957 141.385 36.453 143.535 36.4522C145.679 36.4514 147.498 35.6936 148.992 34.179Z" fill="white"/>
<path d="M177.567 36.1176V37.8212H161.144V13.8672H177.233V15.588H162.864V24.4766H174.493V26.1974H162.864V36.1212L177.567 36.1176Z" fill="white"/>
<path d="M202.718 13.8633V37.8173H201.346L185.442 17.1215V37.821H183.721V13.867H185.091L201.014 34.5676V13.8633H202.718Z" fill="white"/>
<path d="M227 13.8633V18.4915H220.167V37.821H215.034V18.4915H208.19V13.8633H227Z" fill="white"/>
<path d="M24.9513 30.7637C28.1615 30.7637 30.7638 28.1614 30.7638 24.9512C30.7638 21.741 28.1615 19.1387 24.9513 19.1387C21.7411 19.1387 19.1388 21.741 19.1388 24.9512C19.1388 28.1614 21.7411 30.7637 24.9513 30.7637Z" fill="white"/>
</svg>
