<svg width="63" height="53" viewBox="0 0 63 53" fill="none" xmlns="http://www.w3.org/2000/svg">
<path d="M29.4314 35.3334H12.3986C10.9365 35.3288 9.5357 34.7385 8.50212 33.6915C7.46853 32.6445 6.88621 31.2258 6.88235 29.7454V17.3919C6.88621 15.9115 7.46853 14.4928 8.50212 13.4458C9.5357 12.3988 10.9365 11.8085 12.3986 11.804H29.4314V35.3334Z" stroke="#00E725" stroke-width="2" stroke-miterlimit="10"/>
<path d="M29.4314 35.1686L54.818 45.1373L54.9216 2L29.4314 12.0727" stroke="#00E725" stroke-width="2" stroke-miterlimit="10"/>
<path d="M6.88235 16.7059C6.10987 16.7059 5.34496 16.8834 4.63128 17.2283C3.9176 17.5732 3.26913 18.0787 2.7229 18.716C2.17667 19.3532 1.74338 20.1098 1.44777 20.9424C1.15215 21.775 1 22.6674 1 23.5687C1 24.4699 1.15215 25.3623 1.44777 26.1949C1.74338 27.0276 2.17667 27.7841 2.7229 28.4214C3.26913 29.0586 3.9176 29.5641 4.63128 29.909C5.34496 30.2539 6.10987 30.4314 6.88235 30.4314" stroke="#00E725" stroke-width="2" stroke-miterlimit="10"/>
<path d="M55.902 30.4314C57.4621 30.4314 58.9583 29.7084 60.0614 28.4214C61.1646 27.1344 61.7843 25.3888 61.7843 23.5687C61.7843 21.7486 61.1646 20.003 60.0614 18.716C58.9583 17.429 57.4621 16.7059 55.902 16.7059" stroke="#00E725" stroke-width="2" stroke-miterlimit="10"/>
<path d="M13.7451 35.3333L18.3303 48.5524C18.5482 49.1826 18.8913 49.7649 19.3401 50.266C19.7889 50.767 20.3345 51.177 20.9458 51.4725C21.5572 51.768 22.2222 51.9433 22.903 51.9883C23.5839 52.0333 24.2671 51.9472 24.9138 51.7348C25.5605 51.5225 26.1579 51.188 26.672 50.7506C27.186 50.3132 27.6067 49.7814 27.9099 49.1856C28.2131 48.5897 28.3929 47.9415 28.4391 47.278C28.4852 46.6144 28.3969 45.9484 28.179 45.3181L24.7642 35.4391" stroke="#00E725" stroke-width="2" stroke-miterlimit="10"/>
</svg>
