<svg width="316" height="316" viewBox="0 0 316 316" fill="none" xmlns="http://www.w3.org/2000/svg">
<circle cx="158" cy="158" r="157" stroke="#00E725" stroke-width="2" stroke-dasharray="4 4"/>
<circle cx="260" cy="262" r="46" fill="white" stroke="#00E725" stroke-width="2"/>
<circle cx="260" cy="52" r="46" fill="white" stroke="#00E725" stroke-width="2"/>
<circle cx="51" cy="262" r="46" fill="white" stroke="#00E725" stroke-width="2"/>
<circle cx="51" cy="52" r="46" fill="white" stroke="#00E725" stroke-width="2"/>
<g clip-path="url(#clip0_92_1098)">
<path d="M280.639 32.1853C276.751 30.411 272.582 29.1037 268.223 28.3549C268.143 28.3405 268.064 28.3766 268.023 28.4488C267.487 29.3974 266.893 30.6349 266.477 31.6075C261.789 30.9093 257.124 30.9093 252.532 31.6075C252.116 30.6132 251.5 29.3974 250.961 28.4488C250.921 28.379 250.841 28.3429 250.762 28.3549C246.405 29.1013 242.236 30.4086 238.346 32.1853C238.312 32.1998 238.283 32.2239 238.264 32.2552C230.356 44.0064 228.189 55.4687 229.252 66.789C229.257 66.8443 229.288 66.8973 229.331 66.931C234.549 70.7421 239.603 73.0558 244.563 74.5893C244.643 74.6134 244.727 74.5846 244.777 74.5195C245.951 72.9258 246.997 71.2453 247.893 69.4781C247.946 69.3747 247.896 69.2519 247.788 69.2109C246.129 68.585 244.549 67.8218 243.029 66.9551C242.909 66.8853 242.899 66.7143 243.01 66.6324C243.33 66.3941 243.65 66.1461 243.955 65.8957C244.01 65.85 244.087 65.8403 244.152 65.8692C254.135 70.4027 264.943 70.4027 274.808 65.8692C274.873 65.8379 274.95 65.8476 275.008 65.8933C275.313 66.1437 275.633 66.3941 275.955 66.6324C276.066 66.7143 276.059 66.8853 275.938 66.9551C274.419 67.8386 272.839 68.585 271.178 69.2085C271.07 69.2495 271.021 69.3747 271.074 69.4781C271.99 71.2429 273.036 72.9233 274.188 74.5171C274.236 74.5846 274.323 74.6134 274.402 74.5893C279.386 73.0558 284.44 70.7421 289.658 66.931C289.704 66.8973 289.733 66.8467 289.737 66.7914C291.009 53.7039 287.607 42.3356 280.718 32.2576C280.702 32.2239 280.673 32.1998 280.639 32.1853ZM249.384 59.8961C246.379 59.8961 243.902 57.1516 243.902 53.781C243.902 50.4104 246.331 47.6659 249.384 47.6659C252.462 47.6659 254.914 50.4345 254.866 53.781C254.866 57.1516 252.438 59.8961 249.384 59.8961ZM269.653 59.8961C266.648 59.8961 264.171 57.1516 264.171 53.781C264.171 50.4104 266.6 47.6659 269.653 47.6659C272.731 47.6659 275.183 50.4345 275.135 53.781C275.135 57.1516 272.731 59.8961 269.653 59.8961Z" fill="#5900B7"/>
</g>
<path d="M73.8986 250.232C77.2201 248.642 78.9599 246.194 79.0548 243.734C78.1058 244.964 74.5735 247.254 72.1589 247.264C71.8636 246.808 71.5684 246.374 71.2942 245.982C67.435 240.629 60.1068 237.926 54.5184 240.703C54.9191 240.332 55.3197 239.971 55.7415 239.632C56.2898 239.166 59.8116 237.131 58.715 236.018C57.7765 235.042 53.9806 238.827 53.2109 239.42C54.181 238.562 55.7837 237.109 55.499 235.721C53.8435 236.622 52.4517 238.095 51.5765 239.802C51.8612 239.102 51.9878 238.339 51.8085 237.629C48.2867 242.378 47.8228 249.416 47.8228 256.083C45.4714 255.055 43.4469 254.313 41.7915 254.101C37.1626 253.486 31.7534 253.073 23.5289 253.115C24.2143 255.596 26.8082 258.256 31.648 258.85C30.7306 259.062 29.2228 259.931 28.0629 260.726C29.6129 263.281 32.1752 264.903 37.1942 264.245C35.1381 265.189 34.2313 266.079 33.6303 267.489C35.3068 269.037 38.4912 270.404 42.5401 268.337C38.6177 272.142 42.8037 274.856 46.4099 272.842C42.4452 282.064 32.0065 285.456 23.9929 282.043C47.2745 297.264 77.4626 275.979 74.816 253.804C78.5592 252.416 80.2568 250.253 81.0582 248.271C79.0759 249.49 75.8177 250.296 73.8986 250.232Z" fill="#5900B7"/>
<g clip-path="url(#clip1_92_1098)">
<path d="M75.9767 39.6107V64.3893C75.9767 71.359 70.3124 77 63.366 77H38.5874C31.641 77 25.9767 71.3357 25.9767 64.3893V39.6107C25.9767 32.6643 31.641 27 38.5874 27H63.3427C70.3124 27 75.9767 32.6643 75.9767 39.6107ZM70.5221 64.3893V39.6107C70.5221 35.648 67.3054 32.4312 63.3427 32.4312H38.5641C34.6014 32.4312 31.3846 35.648 31.3846 39.6107V64.3893C31.3846 68.352 34.6014 71.5688 38.5641 71.5688H63.3427C67.3054 71.5688 70.5221 68.3287 70.5221 64.3893Z" fill="#5900B7"/>
<path d="M64.2517 35.6946C65.9301 35.6946 67.3053 37.0699 67.3053 38.7482C67.3053 40.4265 65.9301 41.8018 64.2517 41.8018C62.5734 41.8018 61.1981 40.4265 61.1981 38.7482C61.2214 37.0466 62.5734 35.6946 64.2517 35.6946Z" fill="#5900B7"/>
<path d="M50.965 39.1211C58.0746 39.1211 63.8322 44.902 63.8322 51.9882C63.8322 59.0745 58.0513 64.8787 50.965 64.8787C43.8788 64.8787 38.1212 59.0978 38.1212 51.9882C38.1212 44.8787 43.8555 39.1211 50.965 39.1211ZM58.4009 51.9882C58.4009 47.8857 55.0676 44.5523 50.965 44.5523C46.8625 44.5523 43.5291 47.8857 43.5291 51.9882C43.5291 56.0908 46.8625 59.4241 50.965 59.4241C55.0676 59.4241 58.4009 56.0908 58.4009 51.9882Z" fill="#5900B7"/>
</g>
<path d="M255.328 256.875C256.653 256.825 257.981 256.839 259.305 256.915C259.745 256.96 260.131 257.469 260.546 257.771C260.151 258.015 259.765 258.457 259.359 258.475C257.605 258.551 255.836 258.52 254.077 258.497C253.056 258.497 252.777 257.988 253.207 257.168C254.901 253.905 256.61 250.646 258.333 247.392C258.851 246.401 259.535 246.446 260.019 247.347C261.768 250.586 263.468 253.85 265.12 257.14C265.315 257.723 265.378 258.337 265.306 258.943C265.306 268.366 265.306 277.787 265.306 287.206V289.356H271.902C271.902 287.35 271.976 285.299 271.902 283.253C271.834 281.847 272.455 281.225 273.916 281C275.704 280.738 277.453 280.261 279.242 280.013C280.556 279.828 280.967 279.179 280.957 278.066C280.957 274.911 281.03 271.783 280.928 268.647C280.879 267.06 281.387 266.425 283.2 266.479C286.264 266.569 287.363 267.137 285.374 263.468C284.641 262.116 284.055 260.714 283.317 259.371C281.903 256.905 281.21 254.142 281.304 251.354C281.582 243.034 275.523 236.436 266.347 234.313C263.09 233.51 259.691 233.325 256.355 233.772C253.02 234.218 249.817 235.285 246.943 236.909C239.647 240.938 236.764 247.203 236.808 254.819C236.837 259.705 238.904 263.887 242.467 267.344C244.949 269.751 246.835 272.248 246.674 275.727H252.933V263.721C252.854 263.272 252.867 262.813 252.972 262.368C253.251 261.944 253.599 261.561 254.003 261.233C254.253 261.625 254.707 262.017 254.712 262.409C254.761 267.011 254.712 271.608 254.756 276.205C254.756 277.106 254.306 277.358 253.427 277.349C251.059 277.331 248.689 277.331 246.317 277.349C245.311 277.349 244.802 276.944 244.89 276.047C245.179 273.122 243.766 270.945 241.641 268.908C237.018 264.487 234.531 259.2 235.073 252.981C236.051 242.011 242.638 234.868 254.551 232.601C261.954 231.19 269.059 232.177 275.264 236.494C281.47 240.812 283.459 246.77 283.083 253.657C283.035 254.361 283.157 255.065 283.439 255.721C284.72 258.488 286.107 261.215 287.427 263.968C288.717 266.65 287.842 267.889 284.68 267.93C284.026 267.93 283.371 267.93 282.511 267.93V277.313C282.511 280.567 282.144 280.977 278.641 281.631C277.053 281.933 275.46 282.217 273.676 282.532C273.676 284.687 273.578 286.809 273.706 288.918C273.808 290.509 273.105 291.037 271.492 290.992C269.537 290.933 267.583 290.893 265.662 290.992C264.05 291.077 263.556 290.509 263.566 289.058C263.62 279.359 263.537 269.656 263.654 259.957C263.683 257.19 262.188 255.072 260.928 252.809C260.439 251.931 257.844 252.097 257.341 252.976C256.652 254.188 256.08 255.405 255.328 256.875Z" fill="#5900B7"/>
<path opacity="0.3" d="M158 200C181.196 200 200 181.196 200 158C200 134.804 181.196 116 158 116C134.804 116 116 134.804 116 158C116 181.196 134.804 200 158 200Z" fill="#00E725"/>
<path opacity="0.4" d="M158 184.299C172.525 184.299 184.299 172.525 184.299 158C184.299 143.475 172.525 131.701 158 131.701C143.475 131.701 131.701 143.475 131.701 158C131.701 172.525 143.475 184.299 158 184.299Z" fill="#00E725"/>
<path d="M158 167.813C163.42 167.813 167.813 163.42 167.813 158C167.813 152.58 163.42 148.187 158 148.187C152.58 148.187 148.187 152.58 148.187 158C148.187 163.42 152.58 167.813 158 167.813Z" fill="#00E725"/>
<line x1="229.707" y1="87.7071" x2="202.707" y2="114.707" stroke="#00E725" stroke-width="2" stroke-dasharray="4 4"/>
<line x1="83.7071" y1="84.2929" x2="112.707" y2="113.293" stroke="#00E725" stroke-width="2" stroke-dasharray="4 4"/>
<line x1="82.2929" y1="227.293" x2="109.293" y2="200.293" stroke="#00E725" stroke-width="2" stroke-dasharray="4 4"/>
<line x1="228.293" y1="230.707" x2="199.293" y2="201.707" stroke="#00E725" stroke-width="2" stroke-dasharray="4 4"/>
<defs>
<clipPath id="clip0_92_1098">
<rect width="61" height="47" fill="white" transform="translate(229 28)"/>
</clipPath>
<clipPath id="clip1_92_1098">
<rect width="50" height="50" fill="white" transform="translate(26 27)"/>
</clipPath>
</defs>
</svg>
