<svg width="59" height="74" viewBox="0 0 59 74" fill="none" xmlns="http://www.w3.org/2000/svg">
<path d="M34.7347 64.8162C33.1891 65.0926 31.6215 65.2261 30.0519 65.2148C23.9146 65.2503 17.9257 63.3124 12.9534 59.6819C7.98106 56.0515 4.28382 50.9171 2.39779 45.0236C0.511757 39.13 0.534867 32.7834 2.4639 26.904C4.39294 21.0247 8.12754 15.9181 13.1263 12.3247" stroke="#00E725" stroke-width="2" stroke-miterlimit="10"/>
<path d="M25.4286 7.51612C26.6656 7.51612 27.9026 7.51612 29.196 7.51612C35.1264 7.51329 40.913 9.36655 45.7648 12.8226C50.6167 16.2787 54.2971 21.1689 56.303 26.825C58.309 32.481 58.5425 38.6268 56.9718 44.4225C55.401 50.2181 52.1026 55.3808 47.5274 59.2048" stroke="#00E725" stroke-width="2" stroke-miterlimit="10"/>
<path d="M32 14.4336L25 7.73684L32 1" stroke="#00E725" stroke-width="2" stroke-miterlimit="10"/>
<path d="M28 58.8682L35 65.5649L28 72.3017" stroke="#00E725" stroke-width="2" stroke-miterlimit="10"/>
<path d="M38 41.9133C38 43.5889 37.4362 44.9959 36.3085 46.1344C35.1808 47.2515 33.7234 47.9067 31.9362 48.1V51H30.0213V48.1322C28.2979 48.0248 26.8298 47.563 25.617 46.7467C24.4043 45.9304 23.5319 44.8348 23 43.46L24.9149 42.3322C25.7021 44.5233 27.4043 45.7263 30.0213 45.9411V37.0478C29.0638 36.7041 28.2872 36.3926 27.6915 36.1133C27.117 35.8341 26.5213 35.4581 25.9043 34.9856C25.2872 34.513 24.8298 33.933 24.5319 33.2456C24.2553 32.5581 24.117 31.7526 24.117 30.8289C24.117 29.1533 24.6702 27.7893 25.7766 26.7367C26.9043 25.6626 28.3191 25.0396 30.0213 24.8678V22H31.9362V24.9C33.1915 25.0504 34.3085 25.48 35.2872 26.1889C36.266 26.8978 37.0106 27.8537 37.5213 29.0567L35.6383 30.12C34.9574 28.4015 33.7234 27.4026 31.9362 27.1233V35.5011C32.8723 35.8233 33.6489 36.1348 34.266 36.4356C34.883 36.7363 35.5 37.1337 36.117 37.6278C36.7553 38.1219 37.2234 38.7233 37.5213 39.4322C37.8404 40.1411 38 40.9681 38 41.9133ZM26.3511 30.8289C26.3511 31.817 26.6489 32.6011 27.2447 33.1811C27.8404 33.7611 28.766 34.2981 30.0213 34.7922V27.0911C28.9149 27.22 28.0213 27.6174 27.3404 28.2833C26.6809 28.9278 26.3511 29.7763 26.3511 30.8289ZM31.9362 45.9089C33.1277 45.737 34.0638 45.2967 34.7447 44.5878C35.4255 43.8789 35.766 42.9874 35.766 41.9133C35.766 40.8607 35.4468 40.0337 34.8085 39.4322C34.1702 38.8093 33.2128 38.24 31.9362 37.7244V45.9089Z" fill="#00E725"/>
</svg>
