<svg width="47" height="62" viewBox="0 0 47 62" fill="none" xmlns="http://www.w3.org/2000/svg">
<path d="M44.2914 45.616C44.6888 47.3181 44.6834 49.0884 44.2757 50.788C43.8679 52.4876 43.0688 54.0704 41.9413 55.4119C40.8137 56.7533 39.3882 57.8169 37.7768 58.5193C36.1655 59.2217 34.4121 59.5438 32.6543 59.4602H14.3959C12.6381 59.5438 10.8847 59.2217 9.27336 58.5193C7.66201 57.8169 6.23665 56.7533 5.10907 55.4119C3.98149 54.0704 3.18243 52.4876 2.77466 50.788C2.36689 49.0884 2.36149 47.3181 2.75889 45.616L6.21995 26.9911C7.06738 23.155 9.18069 19.7097 12.2248 17.2017C15.269 14.6937 19.0695 13.2666 23.0235 13.147H24.0267C27.9807 13.2666 31.7812 14.6937 34.8253 17.2017C37.8695 19.7097 39.9829 23.155 40.8304 26.9911L44.2914 45.616Z" stroke="#00E725" stroke-width="2" stroke-miterlimit="10"/>
<path d="M12.6404 4.58146C11.286 -0.398458 16.2016 4.58146 23.525 4.58146C30.8484 4.58146 35.7641 -0.398458 34.4098 4.58146C33.8727 7.05138 32.4996 9.26416 30.5191 10.8512C28.5386 12.4382 26.0701 13.3038 23.525 13.3038C20.9799 13.3038 18.5116 12.4382 16.5311 10.8512C14.5506 9.26416 13.1775 7.05138 12.6404 4.58146Z" stroke="#00E725" stroke-width="2" stroke-miterlimit="10"/>
<path d="M31 43.9133C31 45.5889 30.4362 46.9959 29.3085 48.1344C28.1808 49.2515 26.7234 49.9067 24.9362 50.1V53H23.0213V50.1322C21.2979 50.0248 19.8298 49.563 18.617 48.7467C17.4043 47.9304 16.5319 46.8348 16 45.46L17.9149 44.3322C18.7021 46.5233 20.4043 47.7263 23.0213 47.9411V39.0478C22.0638 38.7041 21.2872 38.3926 20.6915 38.1133C20.117 37.8341 19.5213 37.4581 18.9043 36.9856C18.2872 36.513 17.8298 35.933 17.5319 35.2456C17.2553 34.5581 17.117 33.7526 17.117 32.8289C17.117 31.1533 17.6702 29.7893 18.7766 28.7367C19.9043 27.6626 21.3191 27.0396 23.0213 26.8678V24H24.9362V26.9C26.1915 27.0504 27.3085 27.48 28.2872 28.1889C29.266 28.8978 30.0106 29.8537 30.5213 31.0567L28.6383 32.12C27.9574 30.4015 26.7234 29.4026 24.9362 29.1233V37.5011C25.8723 37.8233 26.6489 38.1348 27.266 38.4356C27.883 38.7363 28.5 39.1337 29.117 39.6278C29.7553 40.1219 30.2234 40.7233 30.5213 41.4322C30.8404 42.1411 31 42.9681 31 43.9133ZM19.3511 32.8289C19.3511 33.817 19.6489 34.6011 20.2447 35.1811C20.8404 35.7611 21.766 36.2981 23.0213 36.7922V29.0911C21.9149 29.22 21.0213 29.6174 20.3404 30.2833C19.6809 30.9278 19.3511 31.7763 19.3511 32.8289ZM24.9362 47.9089C26.1277 47.737 27.0638 47.2967 27.7447 46.5878C28.4255 45.8789 28.766 44.9874 28.766 43.9133C28.766 42.8607 28.4468 42.0337 27.8085 41.4322C27.1702 40.8093 26.2128 40.24 24.9362 39.7244V47.9089Z" fill="#00E725"/>
</svg>
