<svg width="495" height="354" viewBox="0 0 495 354" fill="none" xmlns="http://www.w3.org/2000/svg">
<g filter="url(#filter0_d_92_1097)">
<rect x="40" y="40" width="407" height="266" rx="10" fill="white"/>
<rect x="41" y="41" width="405" height="264" rx="9" stroke="#00E725" stroke-width="2"/>
</g>
<rect x="127" y="91" width="96" height="96" rx="10" fill="#F6EEFF"/>
<rect x="127" y="195" width="96" height="96" rx="10" fill="#F6EEFF"/>
<rect x="232" y="91" width="96" height="96" rx="10" fill="#F6EEFF"/>
<rect x="337" y="91" width="96" height="96" rx="10" fill="#F6EEFF"/>
<rect x="232" y="195" width="96" height="96" rx="10" fill="#F6EEFF"/>
<rect x="337" y="195" width="96" height="96" rx="10" fill="#F6EEFF"/>
<path d="M161.478 109.382C161.751 109.382 193.58 108.19 193.858 108.268C194.137 108.346 206.67 138.626 206.67 138.626L181.743 159.415L153.134 141.2L161.478 109.382Z" stroke="#5900B7" stroke-width="2" stroke-miterlimit="10"/>
<path d="M168.285 98.4419L148.41 102.854L133.326 127.597L135.442 151.148L151.724 174.237L179.136 179.111L200.938 170.004L216.485 146.458L210.686 123.369L197.351 101.015L168.285 98.4419Z" stroke="#5900B7" stroke-width="2" stroke-miterlimit="10"/>
<path d="M161.472 109.387L148.415 102.854" stroke="#5900B7" stroke-width="2" stroke-miterlimit="10"/>
<path d="M193.852 108.279L197.351 101.015" stroke="#5900B7" stroke-width="2" stroke-miterlimit="10"/>
<path d="M206.642 138.637L216.485 146.458" stroke="#5900B7" stroke-width="2" stroke-miterlimit="10"/>
<path d="M181.709 159.426L179.136 179.111" stroke="#5900B7" stroke-width="2" stroke-miterlimit="10"/>
<path d="M153.106 141.211L135.442 151.148" stroke="#5900B7" stroke-width="2" stroke-miterlimit="10"/>
<path d="M161.478 213.382C161.751 213.382 193.58 212.19 193.858 212.268C194.137 212.346 206.67 242.626 206.67 242.626L181.743 263.415L153.134 245.2L161.478 213.382Z" stroke="#5900B7" stroke-width="2" stroke-miterlimit="10"/>
<path d="M168.285 202.442L148.41 206.854L133.326 231.597L135.442 255.148L151.724 278.237L179.136 283.111L200.938 274.004L216.485 250.458L210.686 227.369L197.351 205.015L168.285 202.442Z" stroke="#5900B7" stroke-width="2" stroke-miterlimit="10"/>
<path d="M161.472 213.387L148.415 206.854" stroke="#5900B7" stroke-width="2" stroke-miterlimit="10"/>
<path d="M193.852 212.279L197.351 205.015" stroke="#5900B7" stroke-width="2" stroke-miterlimit="10"/>
<path d="M206.642 242.637L216.485 250.458" stroke="#5900B7" stroke-width="2" stroke-miterlimit="10"/>
<path d="M181.709 263.426L179.136 283.111" stroke="#5900B7" stroke-width="2" stroke-miterlimit="10"/>
<path d="M153.106 245.211L135.442 255.148" stroke="#5900B7" stroke-width="2" stroke-miterlimit="10"/>
<path d="M266.478 109.382C266.751 109.382 298.58 108.19 298.858 108.268C299.137 108.346 311.67 138.626 311.67 138.626L286.743 159.415L258.134 141.2L266.478 109.382Z" stroke="#5900B7" stroke-width="2" stroke-miterlimit="10"/>
<path d="M273.285 98.4419L253.41 102.854L238.326 127.597L240.442 151.148L256.724 174.237L284.136 179.111L305.938 170.004L321.485 146.458L315.686 123.369L302.351 101.015L273.285 98.4419Z" stroke="#5900B7" stroke-width="2" stroke-miterlimit="10"/>
<path d="M266.472 109.387L253.415 102.854" stroke="#5900B7" stroke-width="2" stroke-miterlimit="10"/>
<path d="M298.852 108.279L302.351 101.015" stroke="#5900B7" stroke-width="2" stroke-miterlimit="10"/>
<path d="M311.642 138.637L321.485 146.458" stroke="#5900B7" stroke-width="2" stroke-miterlimit="10"/>
<path d="M286.709 159.426L284.136 179.111" stroke="#5900B7" stroke-width="2" stroke-miterlimit="10"/>
<path d="M258.106 141.211L240.442 151.148" stroke="#5900B7" stroke-width="2" stroke-miterlimit="10"/>
<path d="M371.478 109.382C371.751 109.382 403.58 108.19 403.858 108.268C404.137 108.346 416.67 138.626 416.67 138.626L391.743 159.415L363.134 141.2L371.478 109.382Z" stroke="#5900B7" stroke-width="2" stroke-miterlimit="10"/>
<path d="M378.285 98.4419L358.41 102.854L343.326 127.597L345.442 151.148L361.724 174.237L389.136 179.111L410.938 170.004L426.485 146.458L420.686 123.369L407.351 101.015L378.285 98.4419Z" stroke="#5900B7" stroke-width="2" stroke-miterlimit="10"/>
<path d="M371.472 109.387L358.415 102.854" stroke="#5900B7" stroke-width="2" stroke-miterlimit="10"/>
<path d="M403.852 108.279L407.351 101.015" stroke="#5900B7" stroke-width="2" stroke-miterlimit="10"/>
<path d="M416.642 138.637L426.485 146.458" stroke="#5900B7" stroke-width="2" stroke-miterlimit="10"/>
<path d="M391.709 159.426L389.136 179.111" stroke="#5900B7" stroke-width="2" stroke-miterlimit="10"/>
<path d="M363.106 141.211L345.442 151.148" stroke="#5900B7" stroke-width="2" stroke-miterlimit="10"/>
<path d="M266.478 213.382C266.751 213.382 298.58 212.19 298.858 212.268C299.137 212.346 311.67 242.626 311.67 242.626L286.743 263.415L258.134 245.2L266.478 213.382Z" stroke="#5900B7" stroke-width="2" stroke-miterlimit="10"/>
<path d="M273.285 202.442L253.41 206.854L238.326 231.597L240.442 255.148L256.724 278.237L284.136 283.111L305.938 274.004L321.485 250.458L315.686 227.369L302.351 205.015L273.285 202.442Z" stroke="#5900B7" stroke-width="2" stroke-miterlimit="10"/>
<path d="M266.472 213.387L253.415 206.854" stroke="#5900B7" stroke-width="2" stroke-miterlimit="10"/>
<path d="M298.852 212.279L302.351 205.015" stroke="#5900B7" stroke-width="2" stroke-miterlimit="10"/>
<path d="M311.642 242.637L321.485 250.458" stroke="#5900B7" stroke-width="2" stroke-miterlimit="10"/>
<path d="M286.709 263.426L284.136 283.111" stroke="#5900B7" stroke-width="2" stroke-miterlimit="10"/>
<path d="M258.106 245.211L240.442 255.148" stroke="#5900B7" stroke-width="2" stroke-miterlimit="10"/>
<path d="M371.478 213.382C371.751 213.382 403.58 212.19 403.858 212.268C404.137 212.346 416.67 242.626 416.67 242.626L391.743 263.415L363.134 245.2L371.478 213.382Z" stroke="#5900B7" stroke-width="2" stroke-miterlimit="10"/>
<path d="M378.285 202.442L358.41 206.854L343.326 231.597L345.442 255.148L361.724 278.237L389.136 283.111L410.938 274.004L426.485 250.458L420.686 227.369L407.351 205.015L378.285 202.442Z" stroke="#5900B7" stroke-width="2" stroke-miterlimit="10"/>
<path d="M371.472 213.387L358.415 206.854" stroke="#5900B7" stroke-width="2" stroke-miterlimit="10"/>
<path d="M403.852 212.279L407.351 205.015" stroke="#5900B7" stroke-width="2" stroke-miterlimit="10"/>
<path d="M416.642 242.637L426.485 250.458" stroke="#5900B7" stroke-width="2" stroke-miterlimit="10"/>
<path d="M391.709 263.426L389.136 283.111" stroke="#5900B7" stroke-width="2" stroke-miterlimit="10"/>
<path d="M363.106 245.211L345.442 255.148" stroke="#5900B7" stroke-width="2" stroke-miterlimit="10"/>
<rect x="54" y="92" width="59" height="8" rx="4" fill="#00E725"/>
<rect x="333" y="56" width="97" height="8" rx="4" fill="#00E725"/>
<rect x="54" y="109" width="59" height="8" rx="4" fill="#00E725"/>
<rect x="54" y="126" width="59" height="8" rx="4" fill="#00E725"/>
<rect x="54" y="143" width="59" height="8" rx="4" fill="#00E725"/>
<rect x="54" y="160" width="59" height="8" rx="4" fill="#00E725"/>
<circle cx="62.5" cy="60.5" r="5.5" fill="#5900B7"/>
<circle cx="81.5" cy="60.5" r="5.5" fill="#00E725"/>
<circle cx="100.5" cy="60.5" r="5.5" fill="#00E725"/>
<circle cx="65" cy="283" r="11" fill="#00E725"/>
<line x1="41" y1="79" x2="447" y2="79" stroke="#00E725" stroke-width="2"/>
<defs>
<filter id="filter0_d_92_1097" x="0" y="0" width="495" height="354" filterUnits="userSpaceOnUse" color-interpolation-filters="sRGB">
<feFlood flood-opacity="0" result="BackgroundImageFix"/>
<feColorMatrix in="SourceAlpha" type="matrix" values="0 0 0 0 0 0 0 0 0 0 0 0 0 0 0 0 0 0 127 0" result="hardAlpha"/>
<feOffset dx="4" dy="4"/>
<feGaussianBlur stdDeviation="22"/>
<feComposite in2="hardAlpha" operator="out"/>
<feColorMatrix type="matrix" values="0 0 0 0 0 0 0 0 0 1 0 0 0 0 0.22 0 0 0 0.19 0"/>
<feBlend mode="normal" in2="BackgroundImageFix" result="effect1_dropShadow_92_1097"/>
<feBlend mode="normal" in="SourceGraphic" in2="effect1_dropShadow_92_1097" result="shape"/>
</filter>
</defs>
</svg>
