<svg width="46" height="51" viewBox="0 0 46 51" fill="none" xmlns="http://www.w3.org/2000/svg">
<path d="M23 45C35.1503 45 45 35.1503 45 23C45 10.8497 35.1503 1 23 1C10.8497 1 1 10.8497 1 23C1 35.1503 10.8497 45 23 45Z" stroke="#00E725" stroke-width="2" stroke-miterlimit="10"/>
<path d="M45 22V27.6413C44.9948 33.5696 42.6753 39.2535 38.5506 43.4454C34.4259 47.6374 28.8332 49.9947 23 50C17.1668 49.9947 11.5741 47.6374 7.4494 43.4454C3.32473 39.2535 1.00521 33.5696 1 27.6413V22" stroke="#00E725" stroke-width="2" stroke-miterlimit="10"/>
<path d="M30 28.9133C30 30.5889 29.4362 31.9959 28.3085 33.1344C27.1808 34.2515 25.7234 34.9067 23.9362 35.1V38H22.0213V35.1322C20.2979 35.0248 18.8298 34.563 17.617 33.7467C16.4043 32.9304 15.5319 31.8348 15 30.46L16.9149 29.3322C17.7021 31.5233 19.4043 32.7263 22.0213 32.9411V24.0478C21.0638 23.7041 20.2872 23.3926 19.6915 23.1133C19.117 22.8341 18.5213 22.4581 17.9043 21.9856C17.2872 21.513 16.8298 20.933 16.5319 20.2456C16.2553 19.5581 16.117 18.7526 16.117 17.8289C16.117 16.1533 16.6702 14.7893 17.7766 13.7367C18.9043 12.6626 20.3191 12.0396 22.0213 11.8678V9H23.9362V11.9C25.1915 12.0504 26.3085 12.48 27.2872 13.1889C28.266 13.8978 29.0106 14.8537 29.5213 16.0567L27.6383 17.12C26.9574 15.4015 25.7234 14.4026 23.9362 14.1233V22.5011C24.8723 22.8233 25.6489 23.1348 26.266 23.4356C26.883 23.7363 27.5 24.1337 28.117 24.6278C28.7553 25.1219 29.2234 25.7233 29.5213 26.4322C29.8404 27.1411 30 27.9681 30 28.9133ZM18.3511 17.8289C18.3511 18.817 18.6489 19.6011 19.2447 20.1811C19.8404 20.7611 20.766 21.2981 22.0213 21.7922V14.0911C20.9149 14.22 20.0213 14.6174 19.3404 15.2833C18.6809 15.9278 18.3511 16.7763 18.3511 17.8289ZM23.9362 32.9089C25.1277 32.737 26.0638 32.2967 26.7447 31.5878C27.4255 30.8789 27.766 29.9874 27.766 28.9133C27.766 27.8607 27.4468 27.0337 26.8085 26.4322C26.1702 25.8093 25.2128 25.24 23.9362 24.7244V32.9089Z" fill="#00E725"/>
</svg>
